#N canvas 25 368 947 340 10;
#X declare -lib mrpeach;
#X obj 12 26 import mrpeach;
#X obj 68 248 udpsend;
#X obj 68 219 packOSC;
#X obj 16 91 loadbang;
#X obj 128 219 print;
#X msg 40 151 disconnect;
#X obj 68 189 r msg;
#X obj 661 248 cnv 15 150 60 empty empty empty 20 12 0 14 -204786 -66577
0;
#X obj 669 260 tgl 15 0 empty ack empty 17 7 0 10 -262144 -1 -1 1 1
;
#X obj 183 26 cnv 15 400 180 empty empty scenes 20 12 0 14 -232576
-66577 0;
#X obj 209 174 s msg;
#X obj 596 75 print;
#X obj 596 41 unpackOSC;
#X obj 661 34 cnv 15 200 210 empty empty is_heartware_online? 20 12
0 14 -261234 -66577 0;
#X obj 670 100 t f;
#X floatatom 670 127 5 0 0 0 - - -;
#X obj 744 100 bng 15 250 50 0 empty empty empty 17 7 0 10 -262144
-1 -1;
#X obj 744 150 bng 15 250 50 0 empty empty empty 17 7 0 10 -262144
-1 -1;
#X msg 744 172 0;
#X obj 744 199 s ack;
#X obj 670 208 s ack;
#X msg 670 177 1;
#X obj 744 122 delay 5100;
#X obj 670 73 routeOSC /mirror/ack;
#X obj 596 11 udpreceive 12345;
#X text 694 257 mirror ACK;
#X msg 220 115 send /mirror/stop;
#X obj 397 128 s msg;
#X obj 373 32 metro 3000;
#X obj 378 4 tgl 15 0 empty empty empty 17 7 0 10 -262144 -1 -1 0 1
;
#X obj 446 32 metro 6000;
#X obj 443 4 tgl 15 0 empty empty empty 17 7 0 10 -262144 -1 -1 0 1
;
#X obj 670 151 select 8;
#X msg 16 119 connect 10.0.0.8 54321;
#X msg 408 94 send /mirror/rot -1 50 200;
#X msg 209 63 send /mirror/rot 1 -200 4000;
#X msg 215 87 send /mirror/rot 1 200 4000;
#X msg 397 69 send /mirror/rot 1 500 200;
#X connect 2 0 1 0;
#X connect 3 0 33 0;
#X connect 5 0 1 0;
#X connect 6 0 2 0;
#X connect 6 0 4 0;
#X connect 12 0 11 0;
#X connect 12 0 23 0;
#X connect 14 0 15 0;
#X connect 15 0 32 0;
#X connect 16 0 22 0;
#X connect 17 0 18 0;
#X connect 18 0 19 0;
#X connect 21 0 20 0;
#X connect 21 0 16 0;
#X connect 22 0 17 0;
#X connect 23 0 14 0;
#X connect 24 0 12 0;
#X connect 26 0 10 0;
#X connect 28 0 35 0;
#X connect 29 0 28 0;
#X connect 30 0 37 0;
#X connect 31 0 30 0;
#X connect 32 0 21 0;
#X connect 33 0 1 0;
#X connect 34 0 27 0;
#X connect 35 0 10 0;
#X connect 36 0 10 0;
#X connect 37 0 27 0;
